<svg id="btn_edit_24px" xmlns="http://www.w3.org/2000/svg" width="24" height="24" viewBox="0 0 24 24">
  <rect id="사각형_908" data-name="사각형 908" width="24" height="24" rx="12" fill="none"/>
  <g id="그룹_634" data-name="그룹 634" transform="translate(-645 -385)">
    <rect id="사각형_907" data-name="사각형 907" width="24" height="24" transform="translate(645 385)" fill="none"/>
  </g>
  <g id="그룹_1247" data-name="그룹 1247" transform="translate(-455 -95.51)">
    <g id="패스_608" data-name="패스 608" transform="translate(461.404 111.559) rotate(-45)" fill="none" stroke-linejoin="round">
      <path d="M2.206,0H14.275V2.414H2.206L0,1.223Z" stroke="none"/>
      <path d="M 14.27475738525391 -2.741813659667969e-05 L 2.206247329711914 1.263618469238281e-05 L -2.86102294921875e-06 1.223362684249878 L 2.206236839294434 2.413712739944458 L 14.27474689483643 2.413672685623169 L 14.27475738525391 -2.741813659667969e-05 M 14.27475738525391 -1.000027418136597 C 14.53996753692627 -1.000027418136597 14.79432678222656 -0.894667387008667 14.98186683654785 -0.7071373462677002 C 15.16939735412598 -0.5195972919464111 15.27475738525391 -0.2652373313903809 15.27475738525391 -2.741813659667969e-05 L 15.27474689483643 2.413672685623169 C 15.27474689483643 2.965962648391724 14.82703685760498 3.413672685623169 14.27474689483643 3.413672685623169 L 2.206236839294434 3.413712501525879 C 2.040467262268066 3.413712501525879 1.877297401428223 3.37250280380249 1.731407165527344 3.293792724609375 L -0.4748325347900391 2.103442668914795 C -0.7965230941772461 1.929872632026672 -0.9978828430175781 1.594632625579834 -0.9999828338623047 1.229122638702393 C -1.002092361450195 0.8636026382446289 -0.8046026229858398 0.5260626077651978 -0.4849328994750977 0.3488125801086426 L 1.721317291259766 -0.8745372295379639 C 1.869697570800781 -0.9568173885345459 2.036577224731445 -0.9999873638153076 2.206247329711914 -0.9999873638153076 L 14.27475738525391 -1.000027418136597 Z" stroke="none" fill="#1b6ecf"/>
    </g>
    <line id="선_290" data-name="선 290" x2="2" y2="2" transform="translate(469.5 103.01)" fill="none" stroke="#1b6ecf" stroke-width="1"/>
  </g>
</svg>
