<svg xmlns="http://www.w3.org/2000/svg" xmlns:xlink="http://www.w3.org/1999/xlink" width="111.002" height="83.46" viewBox="0 0 111.002 83.46">
  <defs>
    <linearGradient id="linear-gradient" x1="0.5" x2="0.5" y2="1" gradientUnits="objectBoundingBox">
      <stop offset="0" stop-color="#7febff"/>
      <stop offset="1" stop-color="#3387e9"/>
    </linearGradient>
  </defs>
  <g id="logo_SkineX_txt" transform="translate(0.502 1.238)">
    <path id="빼기_246" data-name="빼기 246" d="M-21957.152,5395.278h0l-21.465-15.072-21.457-15.073-21.461-15.07a26.044,26.044,0,0,1-7.172-7.562,26.287,26.287,0,0,1-3.6-9.41,26.293,26.293,0,0,1,.18-10.067,26.1,26.1,0,0,1,4.162-9.559l21.463,15.073,21.453,15.069,21.465,15.073a26.125,26.125,0,0,1,7.174,7.562,26.228,26.228,0,0,1,3.6,9.411,26.327,26.327,0,0,1-.178,10.066,26.155,26.155,0,0,1-4.162,9.558Zm-75.555,0h0v-33.962a24.831,24.831,0,0,0,2.859,2.314,127.557,127.557,0,0,0,11.236,7.156c11.826,6.85,15.193,7.508,15.223,7.514a18.079,18.079,0,0,0-3.174,1.183,125.945,125.945,0,0,0-12.049,6.329c-11.127,6.443-14.064,9.438-14.1,9.467Zm80.293-47.853v0c-.031-.029-2.969-3.023-14.1-9.468-11.826-6.845-15.2-7.505-15.227-7.511a18.061,18.061,0,0,0,3.18-1.182,126.855,126.855,0,0,0,12.047-6.329c11.145-6.451,14.07-9.441,14.1-9.469v33.96Zm18.064-10.614a11.668,11.668,0,0,1-11.639-11.673,11.625,11.625,0,0,1,3.41-8.253,11.547,11.547,0,0,1,8.229-3.419,11.559,11.559,0,0,1,8.232,3.419,11.624,11.624,0,0,1,3.408,8.253,11.627,11.627,0,0,1-3.408,8.252A11.557,11.557,0,0,1-21934.35,5336.809Zm-.08-18.228a6.007,6.007,0,0,0-4.381,1.7,6.823,6.823,0,0,0-1.822,4.974c-.012,4.089,2.418,6.637,6.344,6.65,3.121-.013,5.289-1.487,5.807-3.943h-3.342a2.5,2.5,0,0,1-2.393,1.308,2.855,2.855,0,0,1-2.959-3.159h8.785v-1C-21928.391,5321.084-21930.7,5318.581-21934.43,5318.581Zm2.725,5.32h-5.471a2.842,2.842,0,0,1,.826-1.894,2.761,2.761,0,0,1,1.967-.788h.055a2.555,2.555,0,0,1,2.623,2.681Z" transform="translate(22032.709 -5313.463)" stroke="rgba(0,0,0,0)" stroke-width="1" fill="url(#linear-gradient)"/>
  </g>
</svg>
