<svg xmlns="http://www.w3.org/2000/svg" xmlns:xlink="http://www.w3.org/1999/xlink" width="20" height="20" viewBox="0 0 20 20">
  <defs>
    <clipPath id="clip-path">
      <rect width="10" height="20" fill="none"/>
    </clipPath>
  </defs>
  <g id="ico_star_half" transform="translate(-957 -202)">
    <path id="Icon_awesome-star" data-name="Icon awesome-star" d="M10.368.695,7.927,5.866,2.466,6.7A1.266,1.266,0,0,0,1.8,8.831l3.951,4.023-.935,5.683a1.207,1.207,0,0,0,1.735,1.316l4.886-2.683,4.886,2.683a1.208,1.208,0,0,0,1.735-1.316l-.935-5.683,3.951-4.023A1.266,1.266,0,0,0,20.417,6.7l-5.462-.832L12.514.695A1.175,1.175,0,0,0,10.368.695Z" transform="translate(955.559 202.001)" fill="#dfe3eb"/>
    <g id="반복_그리드_19" data-name="반복 그리드 19" transform="translate(957 202)" clip-path="url(#clip-path)">
      <g transform="translate(-957 -202)">
        <path id="Ico_star" d="M10.369.695,7.927,5.866,2.466,6.7A1.266,1.266,0,0,0,1.8,8.831l3.951,4.023-.935,5.683a1.207,1.207,0,0,0,1.735,1.316l4.886-2.683,4.886,2.683a1.208,1.208,0,0,0,1.735-1.316l-.935-5.683,3.951-4.023A1.266,1.266,0,0,0,20.417,6.7l-5.462-.832L12.514.695A1.175,1.175,0,0,0,10.369.695Z" transform="translate(955.559 202.001)" fill="#6aace9"/>
      </g>
    </g>
  </g>
</svg>
