<svg xmlns="http://www.w3.org/2000/svg" width="107.965" height="167.501" viewBox="0 0 107.965 167.501">
  <path id="F_ant_trunk" data-name="F_ant trunk" d="M2867.134,240.779c-.172-.1-.311-.207-.414-.276-2.655-1.621-8.966-4.759-9.035-4.793l-.035-.035a2.079,2.079,0,0,1-.207-.138c0,.345-.138,5.035-14.966,5.138-11.9.1-14.725-3.586-15.38-5.276h-.207c-1,.483-2.1.966-3.241,1.448-1.9.828-4.034,1.759-6.483,3-.69.345-1.69.9-2.828,1.552-3.552,1.966-8.9,4.966-12.242,5.759a93.468,93.468,0,0,0-13.276,4.655l-.483.241-.138.069c.9,5.035,5.656,31.415,8.1,39.553.1.034-.034-.1,0,0,0,0,6.07,15.9,7.138,20.725.207.862.448,2.035.793,3.414,1.483,6.311,3.965,16.828,3.965,22.69,0,15.207-.1,15.794-1.1,21.414l-.207,1.241a37.665,37.665,0,0,1-2.414,7.759,42,42,0,0,0-2.587,8.38c-.069.414-.241,1.345-.482,2.655-.966,5.173-3.035,16.276-3.621,21.38h88.244c-.724-5.173-2.655-15.932-3.552-20.966-.207-1.172-.379-2.035-.414-2.414a41.982,41.982,0,0,0-2.586-8.38,39.164,39.164,0,0,1-2.414-7.759l-.207-1.241c-1-5.621-1.1-6.207-1.1-21.414,0-5.862,2.483-16.38,3.966-22.69.31-1.345.586-2.517.793-3.414,1.069-4.828,7.428-20.755,7.379-20.759a321.594,321.594,0,0,0,7.173-39.829,125.4,125.4,0,0,0-13.242-4.655c-3.621-.793-8.552-3.207-14.69-7.035Z" transform="translate(-2787.642 -234.335)" fill="#fff" stroke="#919191" stroke-width="1"/>
</svg>
