<svg xmlns="http://www.w3.org/2000/svg" width="92.778" height="28.663" viewBox="0 0 92.778 28.663">
  <path id="F_genitalia" d="M2865.585,739.428l39.208-2.207c-.241-1.931-.344-4.035-.655-6.242-.62-4.448-1.31-9.069-1.517-12.138-.034-.517-.138-1.31-.276-2.241H2814.1a16,16,0,0,0-.1,2c0,.172-.9,19.311-.9,19.311l39.415,2.241h.379l.207.517a4.614,4.614,0,0,0,2.1,2.517,10.638,10.638,0,0,0,3.863,1.069c2.069.069,4.483-.862,5.311-1.828a11.893,11.893,0,0,0,1.207-3h0Z" transform="translate(-2812.578 -716.1)" fill="none" stroke="#919191" stroke-width="1"/>
</svg>
