<svg xmlns="http://www.w3.org/2000/svg" width="54.311" height="67.968" viewBox="0 0 54.311 67.968">
  <path id="F_head" d="M2920.493,37.536a2.753,2.753,0,0,0-1.241-2,2.99,2.99,0,0,0-2.1-.276c.207-8.69-1.448-17.173-3.9-21.932-5.069-9.793-15.069-9.793-18.38-9.828h-2.656c-4.173.069-12.862.172-17.794,9.793-2.552,5-3.862,13.483-3.655,21.966a3.134,3.134,0,0,0-2.173.241,2.821,2.821,0,0,0-1.276,2c-.379,2.035.448,3.793,1.172,5.345a16.566,16.566,0,0,1,.862,2.069c.035.1.069.241.1.379.311,1.069.759,2.724,1.862,2.862.1,0,.207.034.311.034a1.874,1.874,0,0,0,.689-.138c2.518,10.69,5.552,15.966,7.449,17.207,1.241.828,11.931,5.207,14.311,5.207h.276c3.863,0,12.552-4.586,13.483-5.207,1.414-.931,3.725-3.759,7.414-17.242a1.6,1.6,0,0,0,.724.138.857.857,0,0,0,.276-.034c1.1-.138,1.586-1.759,1.9-2.828.035-.138.069-.241.1-.379a14.967,14.967,0,0,1,.9-2.069,8.1,8.1,0,0,0,1.345-5.311Z" transform="translate(-2866.745 -3)" fill="#fff" stroke="#919191" stroke-width="1"/>
</svg>
