<svg xmlns="http://www.w3.org/2000/svg" width="27.181" height="86.825" viewBox="0 0 27.181 86.825">
  <path id="F_lt_forearm" data-name="F_lt forearm" d="M3112.4,639.46c.069-3.276.1-7-.034-10.449-.069-1.414-.242-3.586-.414-6.138-.517-7.1-1.311-17.828-1-26.139a117.5,117.5,0,0,0-2.931-30.346c-.172-.759-.344-1.448-.482-2.1a2.943,2.943,0,0,0-.138-.586c-.517-.414-2.207-.931-7.345-1-6.966-.069-11.9,5.242-13.759,7.586.034.345.034.69.034,1.035a63.579,63.579,0,0,0,2.862,17.035,60.79,60.79,0,0,1,1.586,6.345c.483,2.724,1.759,7.38,3.242,12.759,2.276,8.276,4.862,17.656,5.552,23.828a49.115,49.115,0,0,1-.207,14.035c1.9,1.483,8.448,5.724,13,1.069,0-.517-.034-1.138-.034-2,0-1.414.034-3.1.069-4.931Z" transform="translate(-3085.783 -562.198)" fill="#fff" stroke="#919191" stroke-width="1"/>
</svg>
