<svg xmlns="http://www.w3.org/2000/svg" width="27.925" height="60.727" viewBox="0 0 27.925 60.727">
  <path id="F_lt_foot" data-name="F_lt foot" d="M2983.469,1585.788c5.621,1.1,12-4.966,15.414-8.242l.345-.31c2.483-2.379,1-9.207.31-12.483-.173-.862-.31-1.448-.345-1.828-.069-.793-1.448-5.586-2.793-10.242-2.207-7.621-3.483-12.518-3.483-13.035a3.76,3.76,0,0,1,1.034-2.276,7.8,7.8,0,0,0,1.517-2.655c.793-2.38-1.759-5.345-1.759-5.379a.39.39,0,0,1-.1-.276c0-.276-.183-1.607-.183-2.021l-15.3-.841a6.808,6.808,0,0,1-.448,1.414h0a3.458,3.458,0,0,1-.931.966c-1.311,1.1-3.311,2.759-1.138,8.552,2,5.38.552,12.69.448,13.242-.035.448-.862,7.759-1.655,12.725-.9,5.414-.828,12.414.138,15.276.862,2.621,2.724,6.207,8.932,7.414" transform="translate(-2973.106 -1525.678)" fill="#fff" stroke="#919191" stroke-width="1"/>
</svg>
