<svg xmlns="http://www.w3.org/2000/svg" width="28.528" height="50.049" viewBox="0 0 28.528 50.049">
  <path id="F_lt_hand" data-name="F_lt hand" d="M3096.645,802.276a8.138,8.138,0,0,1-.689,1.621,14.693,14.693,0,0,1-1.655,2.9l-.069.069c-3.827,4.966-4.966,6.862-5.241,7.586a9.782,9.782,0,0,0-.276.966,118.148,118.148,0,0,0-2.1,13.035,5.376,5.376,0,0,1-.172,1.035,21.357,21.357,0,0,1-1.862,4.69,26.261,26.261,0,0,0-1.586,3.759,1.235,1.235,0,0,0-.069.345,4.465,4.465,0,0,0,.172,2.448.318.318,0,0,0,.173.1h1.31l-1.069.759a4.111,4.111,0,0,0-1.31,1.828,2.18,2.18,0,0,0,.241,1.621,1.709,1.709,0,0,0,.276.276l.448.31-.414.345a2.34,2.34,0,0,0-.517.828,2.609,2.609,0,0,0,.069,1.138c.034.138.1.276.138.379a.94.94,0,0,0,.552.276.781.781,0,0,1,.552.379.53.53,0,0,1,0,.517c-.069.172-.138.379-.207.517a2.084,2.084,0,0,0,.1,1.31,30.989,30.989,0,0,0,7.069-1.9,66.405,66.405,0,0,0,7.207-5.518,20.637,20.637,0,0,0,1.448-2.552c.862-1.655,2.035-3.931,3.621-6.38.345-.552,1.552-2.035,2.759-3.483.862-1.034,1.9-2.345,2.034-2.552a25.39,25.39,0,0,0,.828-5.9c-.034-.621.138-2.552.345-5,.38-4.1,1.069-9.759.9-12.483-.035-.241,0-1.345,0-2.207-5.552,5.379-12.9-1.414-13-1.069Zm-.448,25.76a23.832,23.832,0,0,1-1,4.138,5.765,5.765,0,0,0-.207.69,26.573,26.573,0,0,1-2.828,3c-.621.483-2,1.448-3,2.172a43.557,43.557,0,0,0,2.656-8,16.459,16.459,0,0,1,.552-1.9l.035-.069c.345-.931,1.414-3.724,2.621-4.069a.93.93,0,0,1,.827.172c.518.414.655,1.793.345,3.862Z" transform="translate(-3081.638 -801.763)" fill="#fff" stroke="#919191" stroke-width="1"/>
</svg>
