<svg xmlns="http://www.w3.org/2000/svg" width="35.848" height="138.211" viewBox="0 0 35.848 138.211">
  <path id="F_lt_leg" data-name="F_lt leg" d="M2963.2,1131.723c.793,6.242,2.345,14.208,3,16.966.655,2.793.931,12.587,1.207,22.07.1,3.276.173,6.379.276,9.035.172,4.759,1.137,15.552,2.137,27,1.138,12.966,2.311,26.38,2.586,33.311.035.552.035,2.276,0,4.414,0,3.379-.034,7.552.069,9.448a87.069,87.069,0,0,1-1.241,13.414l15.311.655c-.311-4-.586-12.518,2.586-26.932,1.034-4.656,8.31-39.864,8.69-49.553a184.553,184.553,0,0,0-4.379-47.864,23.673,23.673,0,0,1-.655-3.552c-.069-1.517-.314-5.044-.314-9.078-3.207,1.138-14.342,4.389-29.274.664Z" transform="translate(-2962.612 -1130.351)" fill="#fff" stroke="#919191" stroke-width="1"/>
</svg>
