<svg xmlns="http://www.w3.org/2000/svg" width="43.755" height="126.013" viewBox="0 0 43.755 126.013">
  <path id="F_lt_thigh" data-name="F_lt thigh" d="M2958.091,811.677a342.236,342.236,0,0,1,2.621,37c-.138,6.414-1.9,39.587-2.276,43.9a38.918,38.918,0,0,0,.483,7c14.932,3.724,26.174.276,29.312-.9a69.766,69.766,0,0,1,.724-11.759c1.1-5.207,8.345-49.657,9.138-58.45.828-9.138,1.794-42.622,1.208-48.45q-.156-1.655-.414-3.621l-39.208,2.207s-1.31,4-1.448,4.414c-.655,2.31-2.966,9.345-.138,28.656Z" transform="translate(-2956.24 -775.875)" fill="#fff" stroke="#919191" stroke-width="1"/>
</svg>
