<svg xmlns="http://www.w3.org/2000/svg" width="31.588" height="105.521" viewBox="0 0 31.588 105.521">
  <path id="F_lt_upper_arm" data-name="F_lt upper arm" d="M3068.631,382.593c.069,1.552.138,3.414.241,5.69,1.828-2.345,6.793-7.655,13.759-7.586,5.138.069,6.828.552,7.345,1a28.7,28.7,0,0,1-.759-7.69c0-1.172.035-2.655-.069-4.828-.345-7.621-1.207-23.759-1.759-30.449-.586-7.242.207-17.9.483-20.966,1-12.173-1.207-16.794-3.207-20.9-.241-.483-.483-.966-.69-1.448-3.207-7-7.552-9-10.69-10.345l-.345-.172c-.276,1.966-5.725,34.76-7.69,39.725-2.069,5.242-5.552,16.621-5.552,16.621.069.207,5.9,22.277,7.587,29.311,1.035,4.552,1.069,5.828,1.345,12.035h0Z" transform="translate(-3059.175 -284.142)" fill="#fff" stroke="#919191" stroke-width="1"/>
</svg>
