<svg xmlns="http://www.w3.org/2000/svg" width="27.181" height="86.997" viewBox="0 0 27.181 86.997">
  <path id="F_rt_forearm" data-name="F_rt forearm" d="M2724.285,639.46c-.069-3.276-.1-7,.034-10.449.069-1.414.241-3.586.414-6.138.517-7.1,1.31-17.828,1-26.139a117.552,117.552,0,0,1,2.931-30.346c.173-.759.345-1.448.483-2.1a2.91,2.91,0,0,1,.138-.586c.517-.414,2.207-.931,7.345-1,6.966-.069,11.9,5.242,13.759,7.586-.034.345-.034.69-.034,1.035a63.569,63.569,0,0,1-2.862,17.035,60.912,60.912,0,0,0-1.586,6.345c-.483,2.724-1.759,7.38-3.241,12.759-2.276,8.276-4.863,17.656-5.552,23.828a50.5,50.5,0,0,0,.069,14c-1.9,1.483-8.311,5.759-12.863,1.1,0-.517.034-1.138.034-2,0-1.414-.034-3.1-.069-4.931Z" transform="translate(-2723.727 -562.198)" fill="#fff" stroke="#919191" stroke-width="1"/>
</svg>
