<svg xmlns="http://www.w3.org/2000/svg" width="27.926" height="60.858" viewBox="0 0 27.926 60.858">
  <path id="F_rt_foot" data-name="F_rt foot" d="M2857.433,1586.426c-5.621,1.1-12-4.966-15.414-8.242l-.345-.31c-2.483-2.379-1-9.207-.311-12.483.173-.862.311-1.448.345-1.828.069-.793,1.448-5.587,2.793-10.242,2.1-7.311,3.483-12.173,3.483-13.035a3.754,3.754,0,0,0-1.035-2.276,7.806,7.806,0,0,1-1.517-2.655c-.793-2.38,1.759-5.345,1.759-5.38a.39.39,0,0,0,.1-.276c0-.276.069-2.069.1-2.448l15.311-.552a6.641,6.641,0,0,0,.518,1.552h0a3.449,3.449,0,0,0,.931.966c1.311,1.1,3.311,2.759,1.138,8.552-2,5.379-.552,12.69-.448,13.242.034.448.862,7.759,1.655,12.725.9,5.414.828,12.414-.138,15.276-.862,2.621-2.724,6.207-8.931,7.414" transform="translate(-2839.87 -1526.185)" fill="#fff" stroke="#919191" stroke-width="1"/>
</svg>
