<svg xmlns="http://www.w3.org/2000/svg" width="28.311" height="50.361" viewBox="0 0 28.311 50.361">
  <path id="F_rt_hand" data-name="F_rt hand" d="M2724.332,806.061a109.037,109.037,0,0,0,.69,12.483c.207,2.414.379,4.345.345,5a27.781,27.781,0,0,0,.828,5.9c.1.207,1.172,1.517,2.034,2.552,1.173,1.448,2.38,2.931,2.759,3.483,1.552,2.483,2.724,4.724,3.621,6.379a20.69,20.69,0,0,0,1.448,2.552,61.453,61.453,0,0,0,7.207,5.517,29.293,29.293,0,0,0,7.069,1.9,2.353,2.353,0,0,0,.1-1.31,1.633,1.633,0,0,0-.207-.517.532.532,0,0,1,0-.517.781.781,0,0,1,.552-.379,1.2,1.2,0,0,0,.552-.276,1.232,1.232,0,0,0,.138-.379,2.172,2.172,0,0,0,.069-1.138,2.341,2.341,0,0,0-.517-.828l-.414-.345.448-.31a1.716,1.716,0,0,0,.276-.276,2.612,2.612,0,0,0,.241-1.621,3.876,3.876,0,0,0-1.31-1.828l-1.069-.759h1.31s.069,0,.173-.1a4.46,4.46,0,0,0,.172-2.448c-.034-.1-.034-.241-.069-.345a19.291,19.291,0,0,0-1.586-3.759,23.19,23.19,0,0,1-1.862-4.69,5.876,5.876,0,0,1-.173-1.034,117.852,117.852,0,0,0-2.1-13.035c-.1-.414-.207-.759-.276-.966-.276-.724-1.414-2.621-5.242-7.586l-.069-.069a14.807,14.807,0,0,1-1.655-2.862v-.035c-.034-.069-.483-1.345-.621-1.931-.061-.3-4.709,4.567-10.554,2.452-.5-.174-2.317-1.052-2.308-1.038S2724.366,805.785,2724.332,806.061Zm13.621,18.552a.931.931,0,0,1,.828-.172c1.207.345,2.276,3.172,2.621,4.069l.034.069c.1.31.311,1,.552,1.9a47.316,47.316,0,0,0,2.655,8c-1-.724-2.379-1.724-3-2.172a26.616,26.616,0,0,1-2.828-3,3.345,3.345,0,0,0-.207-.69,23.887,23.887,0,0,1-1-4.138c-.31-2.1-.207-3.448.345-3.862Z" transform="translate(-2723.798 -801.961)" fill="#fff" stroke="#919191" stroke-width="1"/>
</svg>
