<svg xmlns="http://www.w3.org/2000/svg" width="35.754" height="137.467" viewBox="0 0 35.754 137.467">
  <path id="F_rt_leg" data-name="F_rt leg" d="M2862.543,1133.63c-.793,6.242-2.345,13.518-3,16.276-.655,2.793-.931,12.587-1.207,22.07-.1,3.276-.172,6.38-.276,9.035-.172,4.759-1.138,15.552-2.138,27-1.138,12.966-2.311,26.38-2.586,33.311-.035.552-.035,2.276,0,4.414,0,3.379.034,7.552-.069,9.449a87.007,87.007,0,0,0,1.241,13.414l-15.311.655c.31-4,.586-12.517-2.586-26.932-1.034-4.655-8.311-39.863-8.69-49.553a184.566,184.566,0,0,1,4.379-47.864,23.7,23.7,0,0,0,.656-3.552c.069-1.517.44-4.3.44-8.335,2.726.967,16.767,3,22.938,1.8" transform="translate(-2827.285 -1132.311)" fill="#fff" stroke="#919191" stroke-width="1"/>
</svg>
