<svg xmlns="http://www.w3.org/2000/svg" width="43.599" height="125.989" viewBox="0 0 43.599 125.989">
  <path id="F_rt_thigh" data-name="F_rt thigh" d="M2822.107,889.642a84.275,84.275,0,0,1,.621,11.1c3.1,1.173,14.276,4.586,29.1.965a43.365,43.365,0,0,0,.586-7.759c-.379-4.311-2.138-37.484-2.276-43.9a342.312,342.312,0,0,1,2.621-37c2.828-19.208.345-26.725-.035-28.9-.242-1.379-.759-3.448-.759-3.448l-39.9-2.207c-.172,1.31-.31,2.552-.414,3.621-.586,5.828.379,39.312,1.207,48.45.276,2.862,1.207,9.518,2.414,17.38,2.483,16.138,5.9,36.9,6.621,40.346.035.414.138.862.207,1.345h0Z" transform="translate(-2810.965 -777.975)" fill="#fff" stroke="#919191" stroke-width="1"/>
</svg>
