<svg xmlns="http://www.w3.org/2000/svg" width="32.052" height="105.62" viewBox="0 0 32.052 105.62">
  <path id="F_rt_upper_arm" data-name="F_rt upper arm" d="M2756.066,283.9a20.008,20.008,0,0,0-10.966,10.9c-.207.483-.448.966-.69,1.448-1.966,4.1-4.207,8.724-3.207,20.9.276,3.1,1.069,13.725.483,20.966-.517,6.69-1.414,22.828-1.759,30.449-.1,2.172-.069,3.655-.069,4.828a28.89,28.89,0,0,1-.759,7.69c.517-.414,2.207-.931,7.345-1,6.966-.069,11.9,5.242,13.759,7.586.1-2.31.172-4.173.241-5.69.241-6.207.31-7.483,1.38-12,1.689-7.035,7.965-30.449,8.035-30.656,0,0-2.9-8.931-5.483-15.621-.034-.069-7.172-32.863-8.311-39.794h0Z" transform="translate(-2738.334 -283.404)" fill="#fff" stroke="#919191" stroke-width="1"/>
</svg>
