<svg xmlns="http://www.w3.org/2000/svg" width="14" height="14" viewBox="0 0 14 14">
  <g id="btn_checkbox_on" transform="translate(-1298 -113)">
    <g id="패스_688" data-name="패스 688" transform="translate(1298 113)" fill="#d4dceb">
      <path d="M 12 13.5 L 2 13.5 C 1.172899961471558 13.5 0.5 12.82709980010986 0.5 12 L 0.5 2 C 0.5 1.172899961471558 1.172899961471558 0.5 2 0.5 L 12 0.5 C 12.82709980010986 0.5 13.5 1.172899961471558 13.5 2 L 13.5 12 C 13.5 12.82709980010986 12.82709980010986 13.5 12 13.5 Z" stroke="none"/>
      <path d="M 2 1 C 1.448599815368652 1 1 1.448599815368652 1 2 L 1 12 C 1 12.55140018463135 1.448599815368652 13 2 13 L 12 13 C 12.55140018463135 13 13 12.55140018463135 13 12 L 13 2 C 13 1.448599815368652 12.55140018463135 1 12 1 L 2 1 M 2 0 L 12 0 C 13.10457038879395 0 14 0.8954296112060547 14 2 L 14 12 C 14 13.10457038879395 13.10457038879395 14 12 14 L 2 14 C 0.8954296112060547 14 0 13.10457038879395 0 12 L 0 2 C 0 0.8954296112060547 0.8954296112060547 0 2 0 Z" stroke="none" fill="#386a98"/>
    </g>
    <path id="패스_2" data-name="패스 2" d="M5084.621,512.945l2.712,2.657,4.155-4.132" transform="translate(-3783.055 -393.536)" fill="none" stroke="#386a98" stroke-linecap="round" stroke-linejoin="round" stroke-width="2"/>
  </g>
</svg>
