<svg xmlns="http://www.w3.org/2000/svg" width="53.476" height="63.73" viewBox="0 0 53.476 63.73">
  <path id="B_head" d="M3476.345,73.026a9.829,9.829,0,0,0,8.035-3.655c.207-.241.379-.517.552-.759a35.872,35.872,0,0,0,4.794-13.725,1.33,1.33,0,0,0,.586.138.585.585,0,0,0,.241-.034c.931-.138,1.311-1.793,1.552-2.862a1.769,1.769,0,0,0,.069-.379,18.711,18.711,0,0,1,.724-2.069,12.36,12.36,0,0,0,1.069-4.207h0c0-.379-.034-.759-.069-1.138a2.72,2.72,0,0,0-1.069-2,2.081,2.081,0,0,0-1.552-.31c.207-8.449-1.1-16.932-3.656-21.9-4.931-9.621-13.621-9.724-17.793-9.793a7.806,7.806,0,0,1-.931-.034h-1.724c-3.276,0-13.276,0-18.345,9.793-2.449,4.759-4.138,13.242-3.932,21.932a3.15,3.15,0,0,0-2.1.276,2.755,2.755,0,0,0-1.242,2,8.545,8.545,0,0,0,1.276,5.311,15.029,15.029,0,0,1,.9,2.069c.035.1.069.241.1.379.311,1.069.794,2.724,1.9,2.828.1,0,.172.034.276.034a1.921,1.921,0,0,0,.724-.138c2.069,7.586,3.794,12.035,5.449,14.587,1.069,1.621,3.448,2.414,5.38,2.9a8.392,8.392,0,0,0,1.9.241l16.9.517h0Z" transform="translate(-3440.991 -9.8)" fill="none" stroke="#919191" stroke-width="1"/>
</svg>
