<svg xmlns="http://www.w3.org/2000/svg" width="27.508" height="86.999" viewBox="0 0 27.508 86.999">
  <path id="B_lt_buttock" data-name="B_lt buttock" d="M3296.309,646.96c-.034-3.276-.1-7,.035-10.449.069-1.414.207-3.586.414-6.138.518-7.1,1.31-17.828,1-26.139a115.039,115.039,0,0,1,3.276-30.346c.173-.759.345-1.448.483-2.1a2.977,2.977,0,0,1,.138-.586c.518-.414,2.207-.931,7.345-1,6.966-.069,11.9,5.242,13.759,7.586-.034.345-.034.69-.034,1.035a63.589,63.589,0,0,1-2.862,17.035,60.776,60.776,0,0,0-1.586,6.345c-.483,2.724-1.759,7.38-3.242,12.759-2.276,8.276-4.862,17.656-5.552,23.828-.793,6.828-.69,11.552-.276,14-1.9,1.483-8.31,5.759-12.862,1.1,0-.517.034-1.138.034-2,0-1.379-.034-3.1-.069-4.931Z" transform="translate(-3295.768 -569.698)" fill="none" stroke="#919191" stroke-width="1"/>
</svg>
