<svg xmlns="http://www.w3.org/2000/svg" width="27.924" height="60.682" viewBox="0 0 27.924 60.682">
  <path id="B_lt_foot" data-name="B_lt foot" d="M3436.465,1584.24c.966-2.862,1.034-9.863.138-15.277-.793-4.966-1.621-12.276-1.655-12.724-.1-.552-1.552-7.862.448-13.242,2.138-5.793.138-7.448-1.172-8.552a3.447,3.447,0,0,1-.931-.966h0a4.017,4.017,0,0,1-.379-1.379l-15.415.379c-.034.38-.1,2.172-.1,2.448a.392.392,0,0,1-.1.276c0,.035-2.586,3-1.759,5.38a8.427,8.427,0,0,0,1.517,2.655,3.758,3.758,0,0,1,1.035,2.276c0,.862-1.379,5.724-3.483,13.035-1.345,4.655-2.724,9.448-2.793,10.242-.035.379-.172.966-.345,1.828-.69,3.276-2.173,10.1.31,12.483l.345.31c3.414,3.276,9.793,9.345,15.414,8.242S3436.465,1584.24,3436.465,1584.24Z" transform="translate(-3409.972 -1531.589)" fill="none" stroke="#919191" stroke-width="1"/>
</svg>
