<svg xmlns="http://www.w3.org/2000/svg" width="28.344" height="50.298" viewBox="0 0 28.344 50.298">
  <path id="B_lt_hand" data-name="B_lt hand" d="M3296.432,810.766c-.034.862,0,2.172,0,2.414a108.93,108.93,0,0,0,.69,12.483c.207,2.414.379,4.345.345,5a27.8,27.8,0,0,0,.827,5.9c.1.207,1.172,1.517,2.034,2.552,1.172,1.448,2.38,2.931,2.759,3.483,1.552,2.483,2.724,4.724,3.621,6.38a20.628,20.628,0,0,0,1.448,2.552,61.455,61.455,0,0,0,7.207,5.517,29.306,29.306,0,0,0,7.069,1.9,2.354,2.354,0,0,0,.1-1.31,1.639,1.639,0,0,0-.207-.517.531.531,0,0,1,0-.517.781.781,0,0,1,.552-.379,1.2,1.2,0,0,0,.552-.276,1.236,1.236,0,0,0,.138-.379,2.179,2.179,0,0,0,.069-1.138,2.345,2.345,0,0,0-.518-.828l-.379-.345.448-.31a1.709,1.709,0,0,0,.276-.276,2.614,2.614,0,0,0,.241-1.621,3.877,3.877,0,0,0-1.31-1.828l-1.069-.759h1.311s.069,0,.172-.1a4.457,4.457,0,0,0,.172-2.448c-.035-.1-.035-.241-.069-.345a19.261,19.261,0,0,0-1.586-3.759,23.218,23.218,0,0,1-1.862-4.69,5.855,5.855,0,0,1-.173-1.035,117.924,117.924,0,0,0-2.1-13.035c-.1-.414-.207-.759-.276-.966-.276-.724-1.414-2.621-5.241-7.586l-.069-.069a14.8,14.8,0,0,1-1.655-2.862v-.034a14.539,14.539,0,0,1-.655-1.862c-.1-.414-5.931,5.828-12.862,1.1h0Zm13.622,21a.93.93,0,0,1,.827-.172c1.207.345,2.276,3.173,2.62,4.069l.035.069c.1.31.31,1,.552,1.9a47.336,47.336,0,0,0,2.655,8c-1-.724-2.379-1.724-3-2.172a26.568,26.568,0,0,1-2.828-3,3.364,3.364,0,0,0-.207-.69,23.855,23.855,0,0,1-1-4.138c-.344-2.1-.207-3.483.345-3.862Z" transform="translate(-3295.898 -809.143)" fill="none" stroke="#919191" stroke-width="1"/>
</svg>
