<svg xmlns="http://www.w3.org/2000/svg" width="35.848" height="137.796" viewBox="0 0 35.848 137.796">
  <path id="B_lt_leg" data-name="B_lt leg" d="M3433.143,1138.086c-.793,6.242-2.345,14.207-3,16.966-.655,2.793-.931,12.587-1.207,22.07-.1,3.276-.173,6.379-.276,9.035-.172,4.759-1.138,15.552-2.138,27-1.138,12.966-2.31,26.38-2.586,33.312-.034.552-.034,2.276,0,4.414,0,3.38.034,7.552-.068,9.449a83.663,83.663,0,0,0,1.154,13.2l-15.4.531c.31-4,.386-12.176-2.752-26.59-1.035-4.655-7.966-39.863-8.345-49.553a184.587,184.587,0,0,1,4.379-47.864,23.639,23.639,0,0,0,.655-3.552c.069-1.517.276-4.966.241-9,3.207,1.172,14.415,4.345,29.346.586Z" transform="translate(-3397.883 -1136.783)" fill="none" stroke="#919191" stroke-width="1"/>
</svg>
