<svg xmlns="http://www.w3.org/2000/svg" width="43.727" height="145.296" viewBox="0 0 43.727 145.296">
  <path id="B_lt_thigh" data-name="B_lt thigh" d="M3405.856,753.011a25.489,25.489,0,0,0,6.276.1,37.241,37.241,0,0,0,11.725-2.517,11.478,11.478,0,0,1,.517,1.448c1.9,7.414,1.517,17.621-.414,30.415a340.753,340.753,0,0,0-2.724,36.725c.1,6.38,1.759,39.346,2.138,43.622a30.718,30.718,0,0,1-.345,5.655l-.034.034h0a52.625,52.625,0,0,1-29.277-.759,60.165,60.165,0,0,0-.69-10.621c-1.069-5.173-8.138-49.346-8.9-58.105-.793-9.1-1.656-42.346-1.035-48.139.621-5.931,1.862-22.346,1.862-22.518l.069-1.138a14.559,14.559,0,0,1,.1-1.517c.793,1.931,4,12.656,6.966,15.932,0,0,4.862,9.828,13.759,11.38Z" transform="translate(-3382.366 -725.51)" fill="none" stroke="#919191" stroke-width="1"/>
</svg>
