<svg xmlns="http://www.w3.org/2000/svg" width="32.806" height="105.562" viewBox="0 0 32.806 105.562">
  <path id="B_lt_upper_arm" data-name="B_lt upper arm" d="M3332.956,389.88c-.069,1.552-.276,3.069-.379,5.379-1.931-2.379-6.379-7.38-13.621-7.311-5.345.069-7.1.586-7.655,1a28.167,28.167,0,0,0,.793-7.759c0-1.207-.034-2.69.069-4.9.345-7.69,1.242-24,1.793-30.76.586-7.311-.241-18.07-.483-21.173-1.069-12.311,1.276-16.966,3.311-21.1.242-.483.483-1,.724-1.483,3.345-7.069,6.793-9.621,12.07-10.207-.138-.931,5.448,34.76,7.517,39.829,2.138,5.31,5.725,16.242,5.725,16.242-.069.207-6.138,22.9-7.931,30.035-1.069,4.586-1.655,5.931-1.931,12.207Z" transform="translate(-3310.534 -291.033)" fill="none" stroke="#919191" stroke-width="1"/>
</svg>
