<svg xmlns="http://www.w3.org/2000/svg" width="107.322" height="145.73" viewBox="0 0 107.322 145.73">
  <path id="B_pos_trunk" data-name="B_pos trunk" d="M3457.993,386.522h0c-.241-1.31-.413-2.276-.483-2.655a42.015,42.015,0,0,0-2.586-8.38,37,37,0,0,1-2.414-7.759l-.207-1.241c-1-5.621-1.1-6.207-1.1-21.414,0-5.862,2.483-16.38,3.966-22.69.31-1.345.586-2.517.793-3.414,1.069-4.828,7.207-21,7.276-21.208,2.483-8.655,7.311-39.346,7.311-39.346h0a90.8,90.8,0,0,0-13.277-4.655c-3.345-.793-8.69-3.793-12.242-5.759-1.138-.655-2.138-1.207-2.828-1.552-2.448-1.241-4.587-2.173-6.483-3-1.138-.517-2.241-.966-3.241-1.448h-.207c-.655,1.69-3.483,5.621-15.38,5.276-15.173-.448-15.208-5-15.208-5-.069.035-6.38,3.173-9.035,4.793a4.182,4.182,0,0,0-.414.276c-6.1,3.862-11.07,6.242-14.691,7.1A125.449,125.449,0,0,0,3364.3,259.1h0a248.825,248.825,0,0,0,7.173,39.829h0c.414.862,6.345,15.9,7.38,20.759.207.862.483,2.035.793,3.414,1.483,6.311,3.966,16.828,3.966,22.69,0,15.207-.1,15.794-1.1,21.414l-.207,1.241a37.65,37.65,0,0,1-2.414,7.759,64.386,64.386,0,0,0-3.207,10.38c-.035.276,81.313-.069,81.313-.069h0Z" transform="translate(-3363.764 -241.468)" fill="none" stroke="#919191" stroke-width="1"/>
</svg>
