<svg xmlns="http://www.w3.org/2000/svg" width="27.162" height="86.944" viewBox="0 0 27.162 86.944">
  <path id="B_rt_forearm" data-name="B_rt forearm" d="M3685.205,643.86c.035-3.276.1-7-.034-10.449-.069-1.414-.207-3.586-.414-6.138-.517-7.1-1.31-17.828-1-26.139a117.554,117.554,0,0,0-2.931-30.346c-.172-.759-.345-1.448-.483-2.1a2.943,2.943,0,0,0-.138-.586c-.517-.414-2.207-.931-7.345-1-6.966-.069-11.9,5.242-13.759,7.586.034.345.034.69.034,1.035A63.548,63.548,0,0,0,3662,592.755a60.961,60.961,0,0,1,1.586,6.345c.482,2.724,1.759,7.38,3.242,12.759,2.276,8.276,4.862,17.656,5.552,23.828a53.847,53.847,0,0,1-.1,14.483c1.9,1.483,7.138,4.724,12.9,1.1,0-.517-.035-1.621-.035-2.483,0-1.414.035-3.138.069-4.931h0Z" transform="translate(-3658.583 -566.598)" fill="none" stroke="#919191" stroke-width="1"/>
</svg>
