<svg xmlns="http://www.w3.org/2000/svg" width="27.924" height="60.731" viewBox="0 0 27.924 60.731">
  <path id="B_rt_foot" data-name="B_rt foot" d="M3550.438,1583.274c-.966-2.862-1.034-9.863-.138-15.276.793-4.966,1.621-12.276,1.656-12.725.1-.552,1.552-7.862-.448-13.242-2.138-5.793-.138-7.448,1.172-8.552a3.449,3.449,0,0,0,.931-.966h0a5.484,5.484,0,0,0,.414-1.414l15.214.953c0,.414.269,1.634.269,1.909a.392.392,0,0,0,.1.276c0,.035,2.586,3,1.759,5.38a8.42,8.42,0,0,1-1.517,2.655,3.752,3.752,0,0,0-1.034,2.276c0,.862,1.379,5.724,3.482,13.035,1.345,4.655,2.724,9.448,2.793,10.242.034.379.172.965.344,1.828.69,3.276,2.173,10.1-.31,12.483l-.345.31c-3.414,3.276-9.793,9.345-15.414,8.242S3550.438,1583.274,3550.438,1583.274Z" transform="translate(-3549.009 -1530.574)" fill="none" stroke="#919191" stroke-width="1"/>
</svg>
