<svg xmlns="http://www.w3.org/2000/svg" width="28.367" height="50.188" viewBox="0 0 28.367 50.188">
  <path id="B_rt_hand" data-name="B_rt hand" d="M3670.138,806.973c-.138.586-.483,1.69-.483,1.759v.034a14.77,14.77,0,0,1-1.655,2.862l-.069.069c-3.827,4.966-4.966,6.862-5.241,7.587a9.862,9.862,0,0,0-.276.965,118.038,118.038,0,0,0-2.1,13.035,5.412,5.412,0,0,1-.173,1.035,21.385,21.385,0,0,1-1.862,4.69,26.283,26.283,0,0,0-1.587,3.759c-.034.1-.034.241-.069.345a4.46,4.46,0,0,0,.172,2.448.317.317,0,0,0,.173.1h1.311l-1.069.759a4.112,4.112,0,0,0-1.311,1.828,2.179,2.179,0,0,0,.241,1.621,1.7,1.7,0,0,0,.276.276l.448.31-.38.345a2.341,2.341,0,0,0-.517.828,3.244,3.244,0,0,0,.069,1.138c.034.138.1.276.138.379a.937.937,0,0,0,.552.276.782.782,0,0,1,.552.379.649.649,0,0,1,0,.517c-.069.172-.138.379-.207.517a2.35,2.35,0,0,0,.1,1.31,30.979,30.979,0,0,0,7.069-1.9,66.409,66.409,0,0,0,7.207-5.517,20.752,20.752,0,0,0,1.448-2.552c.862-1.655,2.035-3.931,3.621-6.38.345-.552,1.552-2.034,2.759-3.483.862-1.035,1.9-2.345,2.035-2.552a27.478,27.478,0,0,0,.827-5.9c-.035-.621.138-2.552.344-5a109.042,109.042,0,0,0,.69-12.483,3.556,3.556,0,0,1-.035-.552c-.035-.345-.069-.931-.069-1.793-6.931,4.793-12.828-1.414-12.932-1.069h0Zm-.242,25.9a23.813,23.813,0,0,1-1,4.138,5.809,5.809,0,0,0-.207.69,26.568,26.568,0,0,1-2.828,3c-.621.483-2,1.448-3,2.172a43.536,43.536,0,0,0,2.656-8,16.513,16.513,0,0,1,.552-1.9l.034-.069c.345-.931,1.414-3.724,2.621-4.069a.931.931,0,0,1,.828.172c.517.414.655,1.759.344,3.862Z" transform="translate(-3655.338 -806.459)" fill="none" stroke="#919191" stroke-width="1"/>
</svg>
