<svg xmlns="http://www.w3.org/2000/svg" width="36.191" height="138.519" viewBox="0 0 36.191 138.519">
  <path id="B_rt_leg" data-name="B_rt leg" d="M3537.8,1136.766c.793,6.242,2.345,14.207,3,16.966.655,2.793,1.276,12.587,1.552,22.07.1,3.276-.173,6.38-.069,9.035.173,4.759,1.138,15.552,2.138,27,1.138,12.966,2.311,26.38,2.586,33.311a31.6,31.6,0,0,1,.345,4.414c0,3.379-.035,7.552.069,9.449a86.948,86.948,0,0,1-1.242,13.414l15.311.655c-.311-4-.552-12.518,2.586-26.932,1.034-4.656,8.31-39.864,8.689-49.553a184.566,184.566,0,0,0-4.379-47.864,23.7,23.7,0,0,1-.655-3.552c-.069-1.517-.552-5.311-.552-9.38-3.207,1.173-14.449,4.724-29.381.966Z" transform="translate(-3537.212 -1135.085)" fill="none" stroke="#919191" stroke-width="1"/>
</svg>
