<svg xmlns="http://www.w3.org/2000/svg" width="43.724" height="143.846" viewBox="0 0 43.724 143.846">
  <path id="B_rt_thigh" data-name="B_rt thigh" d="M3563.772,744.121c-3.69,6.38-6.966,9.069-12.552,11.724a34.381,34.381,0,0,1-6.518.276,37.177,37.177,0,0,1-12.724-2.69s-.448,1.207-.586,1.655c-1.9,7.414-1.448,17.07.483,29.829a340.869,340.869,0,0,1,2.724,36.725c-.1,6.379-1.759,39.346-2.138,43.622a30.741,30.741,0,0,0,.345,5.655l.035.034-.035-.034.035.034a51.838,51.838,0,0,0,29.277-1,57.642,57.642,0,0,1,.69-10.414c1.069-5.173,8.138-49.346,8.9-58.105.793-9.1,1.655-42.346,1.034-48.14-.621-5.931-2.207-21.311-2.207-21.484l-.069-1.138a9.509,9.509,0,0,0-.1-1.172c-.793,2-3,9.518-6.586,14.621h0Z" transform="translate(-3529.738 -729.316)" fill="none" stroke="#919191" stroke-width="1"/>
</svg>
