<svg xmlns="http://www.w3.org/2000/svg" width="31.236" height="105.67" viewBox="0 0 31.236 105.67">
  <path id="B_rt_upper_arm" data-name="B_rt upper arm" d="M3641.7,387.148c.241,2.069.621,3.931.724,6.207,1.828-2.345,6.38-7.448,13.345-7.586,5.138-.1,7.242.552,7.759,1-.793-3.862-1.276-5.793-1.242-8.207,0-1.172.034-2.655-.069-4.828-.344-7.621-1.207-23.759-1.759-30.449-.586-7.242.207-17.9.483-20.966,1-12.173-1.207-16.794-3.207-20.9-.241-.483-.483-.966-.69-1.448a22.788,22.788,0,0,0-10-10.173c-.276,1.966-5.862,34.829-7.827,39.794-2.069,5.242-5.621,16.725-5.621,16.725.034.207,5,21.759,6.69,28.829,1.1,4.517.724,5.828,1.414,12Z" transform="translate(-3633.083 -289.061)" fill="none" stroke="#919191" stroke-width="1"/>
</svg>
